<svg id="_005-info" data-name="005-info" xmlns="http://www.w3.org/2000/svg" width="41.511" height="93.952" viewBox="0 0 41.511 93.952">
  <path id="Path_10157" data-name="Path 10157" d="M71.408,83.813l-1.313,5.366q-5.907,2.332-9.427,3.551a24.865,24.865,0,0,1-8.174,1.222q-7.151,0-11.121-3.488A11.289,11.289,0,0,1,37.405,81.6a31.338,31.338,0,0,1,.3-4.264q.3-2.181.959-4.923L43.582,55q.657-2.5,1.108-4.743a20.612,20.612,0,0,0,.448-4.082c0-2.225-.461-3.781-1.378-4.656S41.094,40.2,38.5,40.2a13.8,13.8,0,0,0-3.913.6c-1.339.4-2.483.778-3.444,1.133l1.316-5.37q4.836-1.969,9.254-3.37a27.677,27.677,0,0,1,8.368-1.4q7.1,0,10.954,3.433a11.392,11.392,0,0,1,3.848,8.918c0,.757-.084,2.091-.265,4a26.735,26.735,0,0,1-.986,5.253l-4.9,17.35a46.087,46.087,0,0,0-1.077,4.779,24.6,24.6,0,0,0-.479,4.054q0,3.456,1.543,4.713t5.362,1.252a15.481,15.481,0,0,0,4.054-.626A22.665,22.665,0,0,0,71.408,83.813Zm1.243-72.841A10.153,10.153,0,0,1,69.222,18.7a11.671,11.671,0,0,1-8.254,3.2,11.8,11.8,0,0,1-8.3-3.2,10.13,10.13,0,0,1-3.461-7.727A10.231,10.231,0,0,1,52.67,3.219a12.248,12.248,0,0,1,16.552,0A10.251,10.251,0,0,1,72.651,10.972Z" transform="translate(-31.139 0)" fill="#ea4141"/>
</svg>
